<mxfile modified="2019-12-15T11:13:30.612Z" host="www.draw.io" agent="Mozilla/5.0 (Windows NT 6.1; Win64; x64; rv:72.0) Gecko/20100101 Firefox/72.0" etag="Zzel8w6J_-FwCr1c1V9N" version="12.4.2" type="github" pages="1">
  <diagram id="WI9T0HZ2pTsCkuznbFz-" name="Page-1">
    <mxGraphModel dx="868" dy="489" grid="1" gridSize="10" guides="1" tooltips="1" connect="1" arrows="1" fold="1" page="0" pageScale="1" pageWidth="1169" pageHeight="827" background="#ffffff" math="0" shadow="1">
      <root>
        <mxCell id="0"/>
        <mxCell id="1" parent="0"/>
        <mxCell id="rQFqvypUnClOA0IYu4vr-19" style="edgeStyle=none;rounded=0;orthogonalLoop=1;jettySize=auto;html=1;entryX=-0.096;entryY=0.558;entryDx=0;entryDy=0;entryPerimeter=0;startArrow=classic;startFill=1;endArrow=classicThin;endFill=1;strokeColor=#808080;strokeWidth=5;" parent="1" source="rQFqvypUnClOA0IYu4vr-1" target="rQFqvypUnClOA0IYu4vr-12" edge="1">
          <mxGeometry relative="1" as="geometry">
            <Array as="points">
              <mxPoint x="132" y="242"/>
              <mxPoint x="132" y="219"/>
              <mxPoint x="181" y="219"/>
            </Array>
          </mxGeometry>
        </mxCell>
        <mxCell id="rQFqvypUnClOA0IYu4vr-20" value="&lt;font style=&quot;font-size: 14px&quot;&gt;&lt;b&gt;Request/Response&lt;/b&gt;&lt;/font&gt;" style="text;html=1;align=center;verticalAlign=middle;resizable=0;points=[];;labelBackgroundColor=#ffffff;" parent="rQFqvypUnClOA0IYu4vr-19" vertex="1" connectable="0">
          <mxGeometry x="-0.7908" y="-4" relative="1" as="geometry">
            <mxPoint x="100.87" y="-26.78" as="offset"/>
          </mxGeometry>
        </mxCell>
        <mxCell id="rQFqvypUnClOA0IYu4vr-1" value="User Interface" style="shape=image;verticalLabelPosition=bottom;verticalAlign=top;imageAspect=0;aspect=fixed;image=data:image/svg+xml,PHN2ZyB4bWxuczpkYz0iaHR0cDovL3B1cmwub3JnL2RjL2VsZW1lbnRzLzEuMS8iIHhtbG5zOmNjPSJodHRwOi8vY3JlYXRpdmVjb21tb25zLm9yZy9ucyMiIHhtbG5zOnJkZj0iaHR0cDovL3d3dy53My5vcmcvMTk5OS8wMi8yMi1yZGYtc3ludGF4LW5zIyIgeG1sbnM6c3ZnPSJodHRwOi8vd3d3LnczLm9yZy8yMDAwL3N2ZyIgeG1sbnM9Imh0dHA6Ly93d3cudzMub3JnLzIwMDAvc3ZnIiB4bWxuczpzb2RpcG9kaT0iaHR0cDovL3NvZGlwb2RpLnNvdXJjZWZvcmdlLm5ldC9EVEQvc29kaXBvZGktMC5kdGQiIHhtbG5zOmlua3NjYXBlPSJodHRwOi8vd3d3Lmlua3NjYXBlLm9yZy9uYW1lc3BhY2VzL2lua3NjYXBlIiB2ZXJzaW9uPSIxLjEiIGlkPSJMYXllcl8xIiB4PSIwcHgiIHk9IjBweCIgd2lkdGg9IjUwIiBoZWlnaHQ9IjUwIiB2aWV3Qm94PSIwIDAgNTAgNTAiIGVuYWJsZS1iYWNrZ3JvdW5kPSJuZXcgMCAwIDUwIDUwIiB4bWw6c3BhY2U9InByZXNlcnZlIiBzb2RpcG9kaTpkb2NuYW1lPSJkZXZpY2VzX2dyb3Vwcy5zdmciIGlua3NjYXBlOnZlcnNpb249IjAuOTIuMyAoMjQwNTU0NiwgMjAxOC0wMy0xMSkiPjxtZXRhZGF0YSBpZD0ibWV0YWRhdGExMDkwOSI+PHJkZjpSREY+PGNjOldvcmsgcmRmOmFib3V0PSIiPjxkYzpmb3JtYXQ+aW1hZ2Uvc3ZnK3htbDwvZGM6Zm9ybWF0PjxkYzp0eXBlIHJkZjpyZXNvdXJjZT0iaHR0cDovL3B1cmwub3JnL2RjL2RjbWl0eXBlL1N0aWxsSW1hZ2UiLz48ZGM6dGl0bGUvPjwvY2M6V29yaz48L3JkZjpSREY+PC9tZXRhZGF0YT48ZGVmcyBpZD0iZGVmczEwOTA3Ii8+PHNvZGlwb2RpOm5hbWVkdmlldyBwYWdlY29sb3I9IiNmZmZmZmYiIGJvcmRlcmNvbG9yPSIjNjY2NjY2IiBib3JkZXJvcGFjaXR5PSIxIiBvYmplY3R0b2xlcmFuY2U9IjEwIiBncmlkdG9sZXJhbmNlPSIxMCIgZ3VpZGV0b2xlcmFuY2U9IjEwIiBpbmtzY2FwZTpwYWdlb3BhY2l0eT0iMCIgaW5rc2NhcGU6cGFnZXNoYWRvdz0iMiIgaW5rc2NhcGU6d2luZG93LXdpZHRoPSIxOTIwIiBpbmtzY2FwZTp3aW5kb3ctaGVpZ2h0PSIxMDE3IiBpZD0ibmFtZWR2aWV3MTA5MDUiIHNob3dncmlkPSJmYWxzZSIgZml0LW1hcmdpbi10b3A9IjAiIGZpdC1tYXJnaW4tbGVmdD0iMCIgZml0LW1hcmdpbi1yaWdodD0iMCIgZml0LW1hcmdpbi1ib3R0b209IjAiIGlua3NjYXBlOnpvb209IjE3IiBpbmtzY2FwZTpjeD0iMjUiIGlua3NjYXBlOmN5PSIyNSIgaW5rc2NhcGU6d2luZG93LXg9Ii04IiBpbmtzY2FwZTp3aW5kb3cteT0iLTgiIGlua3NjYXBlOndpbmRvdy1tYXhpbWl6ZWQ9IjEiIGlua3NjYXBlOmN1cnJlbnQtbGF5ZXI9IkxheWVyXzEiLz4mI3hhOzxwYXRoIGQ9Im0gNDYsMzMgYyAwLDEuNjU3IC0xLjM1OSwzIC0zLjAzNiwzIEggMy4wMzYgQyAxLjM1OSwzNiAwLDM0LjY1NyAwLDMzIFYgMyBDIDAsMS4zNDMgMS4zNTksMCAzLjAzNiwwIEggNDIuOTY0IEMgNDQuNjQxLDAgNDYsMS4zNDMgNDYsMyBaIiBpZD0icGF0aDEwODg4IiBpbmtzY2FwZTpjb25uZWN0b3ItY3VydmF0dXJlPSIwIiBzdHlsZT0iZmlsbDojM2UzZTNlIi8+JiN4YTs8cmVjdCB4PSIyLjk2MTk5OTkiIHk9IjUiIHdpZHRoPSI0MC4wMzc5OTgiIGhlaWdodD0iMjYiIGlkPSJyZWN0MTA4OTAiIHN0eWxlPSJmaWxsOiMzOTk5YzYiLz4mI3hhOzxwYXRoIGQ9Im0gMjYsMi42ODkgYyAwLDAuMzggLTAuMzA4LDAuNjg4IC0wLjY4OCwwLjY4OCBIIDIwLjg5IEMgMjAuNTA5LDMuMzc3IDIwLjIsMy4wNjkgMjAuMiwyLjY4OSAyMC4yLDIuMzA5IDIwLjUwOSwyIDIwLjg5LDIgaCA0LjQyMiBDIDI1LjY5MiwyIDI2LDIuMzA5IDI2LDIuNjg5IiBpZD0icGF0aDEwODkyIiBpbmtzY2FwZTpjb25uZWN0b3ItY3VydmF0dXJlPSIwIiBzdHlsZT0iZmlsbDojZmZmZmZmIi8+JiN4YTs8cGF0aCBlbmFibGUtYmFja2dyb3VuZD0ibmV3ICAgICIgZD0iTSAzMSwwIEggMyBDIDEuMzQzLDAgMCwxLjM0MyAwLDMgdiAzMCBjIDAsMS42NTggMS4zNDMsMyAzLDMgaCAxMiB6IiBpZD0icGF0aDEwODk0IiBpbmtzY2FwZTpjb25uZWN0b3ItY3VydmF0dXJlPSIwIiBzdHlsZT0ib3BhY2l0eTowLjE1O2ZpbGw6I2ZmZmZmZiIvPiYjeGE7PHBhdGggZD0iTSA1MCw0Ny41NDUgQyA1MCw0OC45MDEgNDguOTEzLDUwIDQ3LjU3Miw1MCBIIDI5LjQyOCBDIDI4LjA4Nyw1MCAyNyw0OC45MDEgMjcsNDcuNTQ1IFYgMTYuNDU1IEMgMjcsMTUuMDk5IDI4LjA4NywxNCAyOS40MjgsMTQgSCA0Ny41NzEgQyA0OC45MTMsMTQgNTAsMTUuMDk5IDUwLDE2LjQ1NSBaIiBpZD0icGF0aDEwODk2IiBpbmtzY2FwZTpjb25uZWN0b3ItY3VydmF0dXJlPSIwIiBzdHlsZT0iZmlsbDojM2UzZTNlIi8+JiN4YTs8cmVjdCB4PSIyOSIgeT0iMTgiIHdpZHRoPSIxOSIgaGVpZ2h0PSIyNyIgaWQ9InJlY3QxMDg5OCIgc3R5bGU9ImZpbGw6IzU5YjRkOSIvPiYjeGE7PHBhdGggZD0ibSA0Mi42MDcsMTYuMTcxIGMgMCwwLjMzNSAtMC40MzYsMC42MDYgLTAuOTc0LDAuNjA2IEggMzUuMzcgYyAtMC41NCwwIC0wLjk3NywtMC4yNzEgLTAuOTc3LC0wLjYwNiAwLC0wLjMzNSAwLjQzNywtMC42MDcgMC45NzcsLTAuNjA3IGggNi4yNjMgYyAwLjUzOCwwIDAuOTc0LDAuMjcyIDAuOTc0LDAuNjA3IiBpZD0icGF0aDEwOTAwIiBpbmtzY2FwZTpjb25uZWN0b3ItY3VydmF0dXJlPSIwIiBzdHlsZT0iZmlsbDojZmZmZmZmIi8+JiN4YTs8cGF0aCBlbmFibGUtYmFja2dyb3VuZD0ibmV3ICAgICIgZD0iTSA0NS4wODksMTQgSCAyOS40NjQgQyAyOC4xMDMsMTQgMjcsMTUuMDk5IDI3LDE2LjQ1NSBWIDQ3LjU0NiBDIDI3LDQ4LjkwMiAyOC4xMDMsNTAgMjkuNDY0LDUwIEggMzEuNiBaIiBpZD0icGF0aDEwOTAyIiBpbmtzY2FwZTpjb25uZWN0b3ItY3VydmF0dXJlPSIwIiBzdHlsZT0ib3BhY2l0eTowLjE1O2ZpbGw6I2ZmZmZmZiIvPiYjeGE7PC9zdmc+;fontStyle=1;fontSize=14;" parent="1" vertex="1">
          <mxGeometry x="30" y="220" width="50" height="50" as="geometry"/>
        </mxCell>
        <mxCell id="rQFqvypUnClOA0IYu4vr-10" value="Servlet container" style="swimlane;strokeColor=#4D4D4D;strokeWidth=6;fontSize=14;startSize=29;" parent="1" vertex="1">
          <mxGeometry x="299" y="141" width="140" height="200" as="geometry"/>
        </mxCell>
        <mxCell id="rQFqvypUnClOA0IYu4vr-11" value="&lt;font style=&quot;font-size: 14px&quot;&gt;&lt;b&gt;Thread Pool&lt;/b&gt;&lt;/font&gt;" style="text;html=1;align=center;verticalAlign=middle;resizable=0;points=[];;autosize=1;" parent="rQFqvypUnClOA0IYu4vr-10" vertex="1">
          <mxGeometry y="155" width="100" height="20" as="geometry"/>
        </mxCell>
        <mxCell id="rQFqvypUnClOA0IYu4vr-14" style="edgeStyle=orthogonalEdgeStyle;rounded=0;orthogonalLoop=1;jettySize=auto;html=1;strokeWidth=5;fillColor=#f8cecc;strokeColor=#FF513D;entryX=0;entryY=0.5;entryDx=0;entryDy=0;" parent="1" source="rQFqvypUnClOA0IYu4vr-12" target="wdEjj5ucqJckP4knExDK-1" edge="1">
          <mxGeometry relative="1" as="geometry">
            <mxPoint x="630" y="255" as="targetPoint"/>
            <Array as="points">
              <mxPoint x="590" y="215"/>
              <mxPoint x="590" y="245"/>
            </Array>
          </mxGeometry>
        </mxCell>
        <mxCell id="rQFqvypUnClOA0IYu4vr-15" value="&lt;font style=&quot;font-size: 14px&quot;&gt;&lt;b&gt;Blocking DB call&lt;/b&gt;&lt;/font&gt;" style="text;html=1;align=center;verticalAlign=middle;resizable=0;points=[];;labelBackgroundColor=#ffffff;" parent="rQFqvypUnClOA0IYu4vr-14" vertex="1" connectable="0">
          <mxGeometry x="-0.1921" y="-1" relative="1" as="geometry">
            <mxPoint as="offset"/>
          </mxGeometry>
        </mxCell>
        <mxCell id="rQFqvypUnClOA0IYu4vr-12" value="Thread 1" style="shape=image;verticalLabelPosition=bottom;labelBackgroundColor=#ffffff;verticalAlign=top;aspect=fixed;imageAspect=0;image=data:image/svg+xml,PHN2ZyB4bWxuczpkYz0iaHR0cDovL3B1cmwub3JnL2RjL2VsZW1lbnRzLzEuMS8iIHhtbG5zOmNjPSJodHRwOi8vY3JlYXRpdmVjb21tb25zLm9yZy9ucyMiIHhtbG5zOnJkZj0iaHR0cDovL3d3dy53My5vcmcvMTk5OS8wMi8yMi1yZGYtc3ludGF4LW5zIyIgeG1sbnM6c3ZnPSJodHRwOi8vd3d3LnczLm9yZy8yMDAwL3N2ZyIgeG1sbnM9Imh0dHA6Ly93d3cudzMub3JnLzIwMDAvc3ZnIiB4bWxuczpzb2RpcG9kaT0iaHR0cDovL3NvZGlwb2RpLnNvdXJjZWZvcmdlLm5ldC9EVEQvc29kaXBvZGktMC5kdGQiIHhtbG5zOmlua3NjYXBlPSJodHRwOi8vd3d3Lmlua3NjYXBlLm9yZy9uYW1lc3BhY2VzL2lua3NjYXBlIiB2ZXJzaW9uPSIxLjEiIGlkPSJzdmc1MjEyMyIgaW5rc2NhcGU6dmVyc2lvbj0iMC45Mi4zICgyNDA1NTQ2LCAyMDE4LTAzLTExKSIgc29kaXBvZGk6ZG9jbmFtZT0iYXp1cmVfYXV0b21hdGlvbi5zdmciIHg9IjBweCIgeT0iMHB4IiB2aWV3Qm94PSIwIDAgNTYuOTMgNTEuNTkiIHhtbDpzcGFjZT0icHJlc2VydmUiIHdpZHRoPSI1Ni45MyIgaGVpZ2h0PSI1MS41OSI+PG1ldGFkYXRhIGlkPSJtZXRhZGF0YTY3NCI+PHJkZjpSREY+PGNjOldvcmsgcmRmOmFib3V0PSIiPjxkYzpmb3JtYXQ+aW1hZ2Uvc3ZnK3htbDwvZGM6Zm9ybWF0PjxkYzp0eXBlIHJkZjpyZXNvdXJjZT0iaHR0cDovL3B1cmwub3JnL2RjL2RjbWl0eXBlL1N0aWxsSW1hZ2UiLz48ZGM6dGl0bGUvPjwvY2M6V29yaz48L3JkZjpSREY+PC9tZXRhZGF0YT48ZGVmcyBpZD0iZGVmczY3MiI+JiN4YTsJJiN4YTsmI3hhOwkmI3hhOyYjeGE7CSYjeGE7JiN4YTsJJiN4YTsmI3hhOwkmI3hhOyYjeGE7CQkmI3hhOwkmI3hhOwkJJiN4YTsJJiN4YTsJCSYjeGE7CSYjeGE7CQkmI3hhOwk8L2RlZnM+JiN4YTs8ZmlsdGVyIGlkPSJmaWx0ZXJfMiI+JiN4YTsJPGZlR2F1c3NpYW5CbHVyIGlkPSJmZUdhdXNzaWFuQmx1cjUyMDcyIiBzdGREZXZpYXRpb249IjIiLz4mI3hhOzwvZmlsdGVyPiYjeGE7PHNvZGlwb2RpOm5hbWVkdmlldyBib3JkZXJjb2xvcj0iIzY2NjY2NiIgYm9yZGVyb3BhY2l0eT0iMSIgZml0LW1hcmdpbi1ib3R0b209IjAiIGZpdC1tYXJnaW4tbGVmdD0iMCIgZml0LW1hcmdpbi1yaWdodD0iMCIgZml0LW1hcmdpbi10b3A9IjAiIGdyaWR0b2xlcmFuY2U9IjEwIiBndWlkZXRvbGVyYW5jZT0iMTAiIGlkPSJuYW1lZHZpZXc1MjEyNSIgaW5rc2NhcGU6Y3VycmVudC1sYXllcj0ic3ZnNTIxMjMiIGlua3NjYXBlOmN4PSI0OC4wMDMzMiIgaW5rc2NhcGU6Y3k9IjIwLjQzODA2IiBpbmtzY2FwZTpwYWdlb3BhY2l0eT0iMCIgaW5rc2NhcGU6cGFnZXNoYWRvdz0iMiIgaW5rc2NhcGU6d2luZG93LWhlaWdodD0iMTAxNyIgaW5rc2NhcGU6d2luZG93LW1heGltaXplZD0iMSIgaW5rc2NhcGU6d2luZG93LXdpZHRoPSIxOTIwIiBpbmtzY2FwZTp3aW5kb3cteD0iLTgiIGlua3NjYXBlOndpbmRvdy15PSItOCIgaW5rc2NhcGU6em9vbT0iOC41NDc4Njc4IiBvYmplY3R0b2xlcmFuY2U9IjEwIiBwYWdlY29sb3I9IiNmZmZmZmYiIHNob3dncmlkPSJmYWxzZSI+JiN4YTsJPC9zb2RpcG9kaTpuYW1lZHZpZXc+JiN4YTsmI3hhOzxwYXRoIGlkPSJwYXRoNTIwODUiIGlua3NjYXBlOmNvbm5lY3Rvci1jdXJ2YXR1cmU9IjAiIHN0eWxlPSJmaWxsOiNhMGExYTIiIGQ9Im0gNTIuNjksMjQuNjYgYyAwLC0wLjQzIC0wLjAzLC0wLjg0IC0wLjA3LC0xLjI3IGwgNC4zLC0yLjM4IGMgLTAuMjMsLTEuNDIgLTAuNiwtMi44MSAtMS4xLC00LjEzIGwgLTQuOTEsMC4wOSBjIC0wLjM3LC0wLjc2IC0wLjc4LC0xLjUxIC0xLjI0LC0yLjIgbCAyLjUyLC00LjIyIEMgNTEuMjgsOS40NSA1MC4yNyw4LjQzIDQ5LjE4LDcuNTQgbCAtMi40OSwxLjQ4IC0xLjA1LDEuNTYgLTIuMjYsMy4zMyBjIDMuMjEsMi40OSA1LjI3LDYuMzcgNS4yNywxMC43NSAwLDcuNTEgLTYuMDcsMTMuNTkgLTEzLjU3LDEzLjU5IC03LjQ5LDAgLTEzLjU4LC02LjA4IC0xMy41OCwtMTMuNTkgMCwtNi43MyA0Ljg4LC0xMi4yOCAxMS4yOCwtMTMuMzggTCAzMy44MSw3LjEgMzEuNDMsMi43OSBDIDMwLjAxLDMuMDIgMjguNjQsMy40IDI3LjMyLDMuOSBsIDAuMDcsNC45MiBDIDI2LjY1LDkuMTggMjUuOSw5LjU5IDI1LjIxLDEwLjA3IEwgMjAuOTksNy41NCBjIC0xLjEsMC44OSAtMi4xLDEuOTEgLTMuMDEsMy4wMSBsIDIuNTMsNC4yMiBjIC0wLjQ4LDAuNjkgLTAuODcsMS40NCAtMS4yNSwyLjIgbCAtNC45MiwtMC4wOSBjIC0wLjQ5LDEuMzIgLTAuODYsMi43MSAtMS4wOSw0LjEzIGwgNC4yOSwyLjM4IGMgLTAuMDQsMC40MyAtMC4wNiwwLjg0IC0wLjA2LDEuMjcgMCwwLjQyIDAuMDIsMC44MyAwLjA2LDEuMjYgbCAtNC4yOSwyLjM4IGMgMC4yMywxLjQzIDAuNiwyLjgyIDEuMSw0LjEzIGwgNC45MSwtMC4wOSBjIDAuMzgsMC43NyAwLjc3LDEuNTEgMS4yNSwyLjIxIGwgLTIuNTMsNC4yMiBjIDAuOTEsMS4xIDEuOTEsMi4xMSAzLjAxLDMuMDIgbCA0LjIyLC0yLjU0IGMgMC42OSwwLjQ4IDEuNDQsMC44OSAyLjE4LDEuMjYgbCAtMC4wNyw0LjkxIGMgMS4zMiwwLjUgMi42OSwwLjg3IDQuMTEsMS4xIGwgMi40LC00LjMgYyAwLjQxLDAuMDMgMC44MiwwLjA3IDEuMjUsMC4wNyAwLjQyLDAgMC44NSwtMC4wNCAxLjI2LC0wLjA3IGwgMi4zOCw0LjMgYyAxLjQzLC0wLjIzIDIuODIsLTAuNiA0LjEzLC0xLjEgbCAtMC4wOSwtNC45MSBjIDAuNzcsLTAuMzggMS41LC0wLjc5IDIuMjEsLTEuMjcgbCA0LjIyLDIuNTUgYyAxLjA4LC0wLjkxIDIuMSwtMS45MiAzLC0zLjAzIGwgLTIuNTIsLTQuMjEgYyAwLjQ2LC0wLjcgMC44NywtMS40NCAxLjI0LC0yLjIxIGwgNC45MSwwLjA5IGMgMC41LC0xLjMyIDAuODgsLTIuNyAxLjExLC00LjEzIGwgLTQuMzEsLTIuMzggYyAwLjA0LC0wLjQzIDAuMDcsLTAuODQgMC4wNywtMS4yNiB6Ii8+JiN4YTsmI3hhOzxwYXRoIGlkPSJwYXRoNTIwOTMiIGlua3NjYXBlOmNvbm5lY3Rvci1jdXJ2YXR1cmU9IjAiIHN0eWxlPSJmaWxsOiM3YTdhN2EiIGQ9Im0gMTguMjIsNDMuMyB2IC0yLjEyIGwgLTAuMTIsLTAuMSAtMi4xNiwtMC43MyAtMC41NiwtMS40NiAxLjA3LC0yLjIyIDAuMTIsLTAuMjUgLTAuNjcsLTAuNjggLTAuODIsLTAuODIgLTAuMjgsMC4xNCAtMi4xMiwxLjA5IC0xLjQ2LC0wLjQxIC0wLjkyLC0yLjM3IEggOC4yIEwgOC4wOSwzMy40OCA3LjM2LDM1LjY0IDUuODksMzYuMiAzLjQzLDM1LjAyIDEuOTQsMzYuNSAyLjA4LDM2Ljc4IDMuMTcsMzguODkgMi41Niw0MC4zNSAwLDQxLjI3IHYgMi4xMiBsIDAuMywwLjA5IDIuMjYsMC43NSAwLjYxLDEuNDUgLTEuMTYsMi40NiAxLjQ5LDEuNTEgMC4yOSwtMC4xNCAyLjEyLC0xLjA5IDEuNDUsMC42MSAwLjkzLDIuNTYgaCAyLjEyIGwgMC4wOSwtMC4zIDAuNzQsLTIuMjYgMS40NCwtMC42IDIuNDgsMS4xNSAxLjQ5LC0xLjQ5IC0wLjE0LC0wLjI5IC0xLjA5LC0yLjExIDAuNDIsLTEuNDggeiBNIDkuMyw0NS4yNiBjIC0xLjYzLDAgLTIuOTcsLTEuMzQgLTIuOTcsLTIuOTcgMCwtMS42NCAxLjM0LC0yLjk3IDIuOTcsLTIuOTcgMS42NCwwIDIuOTYsMS4zMyAyLjk2LDIuOTcgMCwxLjYzIC0xLjMyLDIuOTcgLTIuOTYsMi45NyB6Ii8+JiN4YTsmI3hhOzxwYXRoIGlkPSJwYXRoNTIxMDEiIGlua3NjYXBlOmNvbm5lY3Rvci1jdXJ2YXR1cmU9IjAiIHN0eWxlPSJmaWxsOiNmY2QxMTYiIGQ9Im0gMzcuOTEsMCAtMC44MiwyLjU4IC0xLjQxLDQuNDggLTAuNjcsMi4xNSAtMC41OSwxLjg5IC00LjA5LDEzIGMgLTAuMDksMC4yNSAwLjAzLDAuNDUgMC4zMiwwLjQ1IGggMy43NyBjIDAuMTIsMCAwLjIxLDAuMDMgMC4yNywwLjExIDAuMDksMC4wOCAwLjEsMC4yMSAwLjA1LDAuMzUgbCAtMy45LDkuNDUgYyAtMC4xLDAuMjUgLTAuMDMsMC4zIDAuMTUsMC4wOSBMIDQzLjMyLDIwLjU2IGMgMC4xNywtMC4yMSAwLjEsLTAuMzcgLTAuMTYsLTAuMzcgbCAtNC4wNCwwLjAyIC0wLjc1LDAuMDIgYyAtMC4yNywwIC0wLjM5LC0wLjIgLTAuMjUsLTAuNDMgbCAzLjg0LC02Ljg1IDAuOTEsLTEuNjQgMS4wNSwtMS44OCAyLjI0LC0zLjk3IDEuMjgsLTIuMzEgQyA0NC41OCwxLjQ5IDQxLjM2LDAuMzkgMzcuOTEsMCBaIi8+JiN4YTsmI3hhOzxwYXRoIGlkPSJwYXRoNTIxMDkiIGlua3NjYXBlOmNvbm5lY3Rvci1jdXJ2YXR1cmU9IjAiIHN0eWxlPSJmaWxsOiNmZjhjMDA7ZmlsbC1vcGFjaXR5OjAuMyIgZD0ibSA0NC45OCwxLjkxIC04LjkzLDE4LjMgaCAyLjIyIEMgMzguMDgsMjAuMTcgMzcuOTksMjAgMzguMTEsMTkuOCBsIDMuODUsLTYuODUgMC45LC0xLjYzIDEuMDUsLTEuODkgMi4yNSwtMy45NyAxLjI4LC0yLjMxIEMgNDYuNjQsMi42OSA0NS44MiwyLjI4IDQ0Ljk4LDEuOTEgWiIvPiYjeGE7JiN4YTs8cGF0aCBpZD0icGF0aDUyMTE3IiBpbmtzY2FwZTpjb25uZWN0b3ItY3VydmF0dXJlPSIwIiBzdHlsZT0iZmlsbDojZmY4YzAwO2ZpbGwtb3BhY2l0eTowLjMiIGQ9Im0gNDMuMTgsMjAuMTkgLTIuNSwwLjAxIC05LjIxLDEzLjgyIDExLjg3LC0xMy40NiBjIDAuMTgsLTAuMjEgMC4xLC0wLjM3IC0wLjE2LC0wLjM3IHoiLz4mI3hhOzwvc3ZnPg==;fontSize=14;fontStyle=1" parent="1" vertex="1">
          <mxGeometry x="348" y="189" width="57" height="52" as="geometry"/>
        </mxCell>
        <mxCell id="wdEjj5ucqJckP4knExDK-1" value="External Application" style="shape=image;verticalLabelPosition=bottom;labelBackgroundColor=#ffffff;verticalAlign=top;aspect=fixed;imageAspect=0;image=data:image/svg+xml,PHN2ZyB4bWxuczpjYz0iaHR0cDovL2NyZWF0aXZlY29tbW9ucy5vcmcvbnMjIiB4bWxuczpkYz0iaHR0cDovL3B1cmwub3JnL2RjL2VsZW1lbnRzLzEuMS8iIHhtbG5zOmlua3NjYXBlPSJodHRwOi8vd3d3Lmlua3NjYXBlLm9yZy9uYW1lc3BhY2VzL2lua3NjYXBlIiB4bWxuczpyZGY9Imh0dHA6Ly93d3cudzMub3JnLzE5OTkvMDIvMjItcmRmLXN5bnRheC1ucyMiIHhtbG5zOnNvZGlwb2RpPSJodHRwOi8vc29kaXBvZGkuc291cmNlZm9yZ2UubmV0L0RURC9zb2RpcG9kaS0wLmR0ZCIgeG1sbnM6c3ZnPSJodHRwOi8vd3d3LnczLm9yZy8yMDAwL3N2ZyIgeG1sbnM9Imh0dHA6Ly93d3cudzMub3JnLzIwMDAvc3ZnIiB4bWxuczp4bGluaz0iaHR0cDovL3d3dy53My5vcmcvMTk5OS94bGluayIgdmVyc2lvbj0iMS4xIiBpZD0ic3ZnODUiIGlua3NjYXBlOnZlcnNpb249IjAuOTIuMyAoMjQwNTU0NiwgMjAxOC0wMy0xMSkiIHNvZGlwb2RpOmRvY25hbWU9ImNsb3VkX2FwcGxpY2F0aW9ucy5zdmciIHg9IjBweCIgeT0iMHB4IiB2aWV3Qm94PSIwIDAgODQuNTMgNTQuODEiIHN0eWxlPSJlbmFibGUtYmFja2dyb3VuZDpuZXcgMCAwIDg0LjUzIDU0LjgxOyIgeG1sOnNwYWNlPSJwcmVzZXJ2ZSI+JiN4YTs8c29kaXBvZGk6bmFtZWR2aWV3IGJvcmRlcmNvbG9yPSIjNjY2NjY2IiBib3JkZXJvcGFjaXR5PSIxIiBmaXQtbWFyZ2luLWJvdHRvbT0iMCIgZml0LW1hcmdpbi1sZWZ0PSIwIiBmaXQtbWFyZ2luLXJpZ2h0PSIwIiBmaXQtbWFyZ2luLXRvcD0iMCIgZ3JpZHRvbGVyYW5jZT0iMTAiIGd1aWRldG9sZXJhbmNlPSIxMCIgaWQ9Im5hbWVkdmlldzg3IiBpbmtzY2FwZTpjdXJyZW50LWxheWVyPSJzdmc4NSIgaW5rc2NhcGU6Y3g9Ijc4Ljg3MDY5MiIgaW5rc2NhcGU6Y3k9IjE3LjUyODAxMiIgaW5rc2NhcGU6cGFnZW9wYWNpdHk9IjAiIGlua3NjYXBlOnBhZ2VzaGFkb3c9IjIiIGlua3NjYXBlOndpbmRvdy1oZWlnaHQ9IjEwMTciIGlua3NjYXBlOndpbmRvdy1tYXhpbWl6ZWQ9IjEiIGlua3NjYXBlOndpbmRvdy13aWR0aD0iMTkyMCIgaW5rc2NhcGU6d2luZG93LXg9Ii04IiBpbmtzY2FwZTp3aW5kb3cteT0iLTgiIGlua3NjYXBlOnpvb209IjUuOTQ3NDY1MyIgb2JqZWN0dG9sZXJhbmNlPSIxMCIgcGFnZWNvbG9yPSIjZmZmZmZmIiBzaG93Z3JpZD0iZmFsc2UiPiYjeGE7CTwvc29kaXBvZGk6bmFtZWR2aWV3PiYjeGE7PGcgaWQ9Imc4MyIgdHJhbnNmb3JtPSJ0cmFuc2xhdGUoLTAuMDAyMDQ2NzcsMC4xMTY1NTc4NikiPiYjeGE7CTx0aXRsZSBpZD0idGl0bGU3NiI+UGFnZS0xPC90aXRsZT4mI3hhOwk8ZyBpZD0ic2hhcGUzOTc2LTEiPiYjeGE7CQk8dGl0bGUgaWQ9InRpdGxlNzgiPkNsb3VkIEFwcGxpY2F0aW9uczwvdGl0bGU+JiN4YTsJCTxwYXRoIGlkPSJwYXRoODAiIGlua3NjYXBlOmNvbm5lY3Rvci1jdXJ2YXR1cmU9IjAiIHN0eWxlPSJmaWxsOiMzRjU3NjU7IiBkPSJNMTkuMzQsMjkuMzJjMC4xMS0wLjExLDAuMjItMC4yMiwwLjM1LTAuMzMgICAgYy0wLjAyLDAtMC4wMiwwLTAuMDIsMC4wM0MxOS41NiwyOS4xLDE5LjQ1LDI5LjIxLDE5LjM0LDI5LjMyeiBNMzMuMjgsMTAuNTNjLTAuNDcsMC44Ny0wLjg3LDEuOC0xLjE3LDIuNzVsMCwwICAgIGMtMy4zNywyLjM4LTMuMzcsMi4zOC0zLjM3LDIuMzhjMSwxLjYzLDEuMTQsMy41NiwwLjUxLDUuMjdjMS44OCwwLjg0LDEuODgsMC44NCwxLjg4LDAuODRjMC4wMywwLjMzLDAuMDgsMC42OCwwLjE0LDEuMDMgICAgYy0yLjM3LTEuMDgtMi4zNy0xLjA4LTIuMzctMS4wOGMtMC40MywwLjc4LTEuMDMsMS40OS0xLjc5LDIuMDNjLTAuNzksMC41NC0xLjYzLDAuOS0yLjUsMS4wNGMwLjExLDEuMjcsMC4xMSwxLjI3LDAuMTEsMS4yNyAgICBjLTAuMjcsMC4wOC0wLjU3LDAuMTktMC44NSwwLjMzYy0wLjE2LTEuNTItMC4xNi0xLjUyLTAuMTYtMS41MmMtMS43OSwwLjA1LTMuNTktMC43MS00LjgxLTIuMTdjLTIuODIsMi0yLjgyLDItMi44MiwyICAgIGMtMC4yNy0wLjE2LTAuNTUtMC4zMi0wLjgyLTAuNDhjMy4xMi0yLjIzLDMuMTItMi4yMywzLjEyLTIuMjNjLTEtMS42My0xLjEzLTMuNTgtMC41MS01LjI2Yy00LjU3LTIuMS00LjU3LTIuMS00LjU3LTIuMSAgICBjLTEuMTQsMi44My0xLjExLDYuMDYsMC4yNSw4Ljg4Yy0wLjY4LTAuMTktMS4zMy0wLjMyLTEuOTgtMC40MWMtMC42LTEuNjUtMC44Ny0zLjQ3LTAuNzEtNS4zNGMwLjU3LTcuMDEsNi43NC0xMi4yMiwxMy43OC0xMS42NSAgICBDMjguMTEsNi40MSwzMS4xNiw4LjA2LDMzLjI4LDEwLjUzeiBNMjIuNTQsMTIuODRjLTAuNDktNC45OS0wLjQ5LTQuOTktMC40OS00Ljk5Yy0xLjcxLDAuMjEtMy40MiwwLjg2LTQuOTEsMS45NSAgICBjLTEuNTIsMS4wOS0yLjcsMi40Ny0zLjQ4LDQuMDRjNC41OSwyLjA3LDQuNTksMi4wNyw0LjU5LDIuMDdjMC40MS0wLjc2LDEuMDMtMS40NywxLjc5LTIuMDRDMjAuOCwxMy4zMywyMS42OCwxMi45OCwyMi41NCwxMi44NCAgICB6IE0zMi4zMywxMi4wM2MtMi4zMS0yLjk5LTUuODUtNC40Ni05LjM4LTQuMjdjMC40Nyw1LDAuNDcsNSwwLjQ3LDVjMS44Mi0wLjA2LDMuNjEsMC43MSw0LjgzLDIuMkwzMi4zMywxMi4wM3ogTTE4Ljc3LDI5Ljg5ICAgIGMtMC4xNywwLjE2LTAuMywwLjMzLTAuNDQsMC40NkMxOC40NywzMC4yMiwxOC42LDMwLjA1LDE4Ljc3LDI5Ljg5eiBNMTguNzksMjkuODNjMC4xNC0wLjEzLDAuMjgtMC4yNiwwLjQxLTAuNCAgICBDMTkuMDcsMjkuNTcsMTguOTMsMjkuNywxOC43OSwyOS44M3ogTTEzLjU1LDIzLjU0YzAuMTEsMC4wMiwwLjIyLDAuMDUsMC4zLDAuMDhjLTAuMDgtMC4wMy0wLjE5LTAuMDYtMC4zLTAuMTEgICAgQzEzLjU1LDIzLjUxLDEzLjU1LDIzLjUxLDEzLjU1LDIzLjU0eiBNMTQuNzIsMjMuOTdjMC4xOSwwLjA4LDAuMzUsMC4xNywwLjUxLDAuMjVjMC4wMywwLDAuMDMsMCwwLjAzLDAgICAgQzE1LjA3LDI0LjE0LDE0LjkxLDI0LjA1LDE0LjcyLDIzLjk3eiBNMTYuMDgsMjQuN2MwLjA1LDAuMDMsMC4xMSwwLjA5LDAuMTYsMC4xMUMxNi4xOSwyNC43NiwxNi4xMywyNC43MywxNi4wOCwyNC43eiAgICAgTTE5LjY5LDI4Ljk5YzAuMDYtMC4wNSwwLjExLTAuMDgsMC4xNy0wLjEzYy0wLjAzLDAtMC4wNiwwLjAyLTAuMDYsMC4wNUMxOS43NSwyOC45NCwxOS43MiwyOC45NywxOS42OSwyOC45OXogTTI0LjcyLDI2LjA2ICAgIGMwLjE5LTAuMDgsMC4zOC0wLjEzLDAuNi0wLjE5QzI1LjEsMjUuOTMsMjQuOTEsMjUuOTgsMjQuNzIsMjYuMDZ6IE0zMS43OCwxNC4yM2MwLjA4LTAuMjUsMC4xNy0wLjUyLDAuMjUtMC43NiAgICBDMzEuOTUsMTMuNzEsMzEuODYsMTMuOTgsMzEuNzgsMTQuMjN6IE03MC44Niw0MC41OGMtMC4yNywyLjE4LTEuNDYsNC4yMi0zLjQ4LDUuNDZjLTIuODUsMS43Ny02LjQxLDEuNDEtOC44My0wLjYyICAgIGMwLjExLTAuNTcsMC4xOS0xLjE3LDAuMjItMS43NmMwLDAuMDIsMCwwLjA1LDAsMC4wOGMwLjMsMC4zMiwwLjYyLDAuNjUsMC45OCwwLjg5QzYwLjg2LDQzLDYwLjg2LDQzLDYwLjg2LDQzICAgIGMtMS4wMy0wLjc4LTEuNzEtMi4wMy0xLjY5LTMuNDJjLTEuMjItMC4wOC0xLjIyLTAuMDgtMS4yMi0wLjA4YzAuMDMsMC4wNSwwLjA2LDAuMTEsMC4wOSwwLjE2Yy0wLjE0LTAuMzUtMC4zLTAuNjctMC41LTEgICAgYzAuMDksMC4xMywwLjE0LDAuMjQsMC4yLDAuMzhjMS40OSwwLjExLDEuNDksMC4xMSwxLjQ5LDAuMTFjMC4wOC0wLjY2LDAuMy0xLjI1LDAuNjMtMS43N2MxLjA4LTAuNTQsMi4wOS0xLjE3LDMuMDQtMS45ICAgIGMwLjI0LTAuMDMsMC41Mi0wLjAzLDAuNzktMC4wM2MwLjU5LDAuMDYsMS4xNCwwLjIyLDEuNjMsMC40N2MwLDAtMC4wMy0wLjAzLTAuMDMtMC4wNmMwLjU0LDEuMDMsMS4yOCwxLjkzLDIuMTUsMi43MiAgICBjMC4xMSwwLjM1LDAuMTYsMC43NiwwLjE2LDEuMTZjMS42NiwwLjExLDEuNjYsMC4xMSwxLjY2LDAuMTFsMCwwQzY5Ljc3LDQwLjE1LDcwLjMyLDQwLjQsNzAuODYsNDAuNThMNzAuODYsNDAuNTh6IE02NS44OSw0NS4yOCAgICBjLTAuODctMS43Ni0wLjg3LTEuNzYtMC44Ny0xLjc2Yy0wLjU3LDAuMjQtMS4yNSwwLjM4LTEuOTMsMC4zMmMtMC42OC0wLjA1LTEuMzMtMC4yNy0xLjg4LTAuNTljLTEuMTEsMS42Mi0xLjExLDEuNjItMS4xMSwxLjYyICAgIGMwLjg0LDAuNTUsMS43OSwwLjg4LDIuODUsMC45M0M2My45OCw0NS44OCw2NC45OSw0NS42OSw2NS44OSw0NS4yOHogTTY5LjUzLDQwLjMyYy0xLjk4LTAuMTQtMS45OC0wLjE0LTEuOTgtMC4xNCAgICBjLTAuMTcsMS4zNi0wLjk4LDIuNTItMi4xMiwzLjE1YzAuODYsMS43NiwwLjg2LDEuNzYsMC44NiwxLjc2QzY4LjAzLDQ0LjE3LDY5LjMxLDQyLjQxLDY5LjUzLDQwLjMyeiBNNjAuNTMsMzQuMkw2MC41MywzNC4yeiAgICAgTTYwLjI2LDM0LjM0TDYwLjI2LDM0LjM0eiBNNjEuMTYsMzYuMDhMNjEuMTYsMzYuMDh6IE02MS40NiwzNS45Mkw2MS40NiwzNS45MnogTTYxLjIxLDQzLjI1TDYxLjIxLDQzLjI1eiBNNjAuOTQsNDMuMDYgICAgTDYwLjk0LDQzLjA2eiBNNTkuOTQsNDQuNzRMNTkuOTQsNDQuNzR6IE02MC4yMSw0NC45TDYwLjIxLDQ0Ljl6IE02NS4zNyw0My4zNkw2NS4zNyw0My4zNnogTTY1LjEsNDMuNDlMNjUuMSw0My40OXogICAgIE02NS45OSw0NS4yM0w2NS45OSw0NS4yM3ogTTY2LjI5LDQ1LjA5TDY2LjI5LDQ1LjA5eiBNNjkuNTUsNDAuMUw2OS41NSw0MC4xeiBNNjkuNTUsMzkuNzdMNjkuNTUsMzkuNzd6IE02Ny42LDM5LjY2TDY3LjYsMzkuNjYgICAgeiBNNjcuNiwzOS45OUw2Ny42LDM5Ljk5eiBNNTkuMiwzOS42M0w1OS4yLDM5LjYzeiBNNTkuMiwzOS4zMUw1OS4yLDM5LjMxeiBNNTcuMjcsMzkuMkw1Ny4yNywzOS4yeiBNNTcuMjUsMzkuNTNMNTcuMjUsMzkuNTN6ICAgICBNNTguMzYsMzguMDljLTAuMjIsMC4wOC0wLjQzLDAuMTYtMC42MiwwLjIyQzU3LjkzLDM4LjI1LDU4LjE0LDM4LjE3LDU4LjM2LDM4LjA5eiBNNjQuNSwzNC4xYzAuMDMtMC4wMywwLjA1LTAuMDYsMC4wOC0wLjA4ICAgIGMtMC4wNSwwLjA4LTAuMTEsMC4xMy0wLjE2LDAuMThDNjQuNDUsMzQuMTgsNjQuNDcsMzQuMTUsNjQuNSwzNC4xeiBNODQuNTMsMzAuOTJjMCw1LjY3LTQuNjIsMTAuMjYtMTAuMywxMC4yNCAgICBjLTQuNTQsMC04LjM3LTIuOTYtOS43My03LjA2YzAuNDQtMC40MSwwLjg3LTAuODQsMS4yNS0xLjNjMCwwLjAyLTAuMDIsMC4wNS0wLjAyLDAuMDhjMC4yNiwxLjE5LDAuODEsMi4zMywxLjU0LDMuMzMgICAgYzQuNDktMy44NSw0LjQ5LTMuODUsNC40OS0zLjg1Yy0wLjMzLTAuNTctMC40Ni0xLjIyLTAuMzYtMS44N2MtMy4yLTEuMTItMy4yLTEuMTItMy4yLTEuMTJjMC4xOS0wLjM1LDAuMzgtMC43LDAuNTQtMS4wNSAgICBjMCwwLjAyLTAuMDMsMC4wNS0wLjAzLDAuMDhjMy4wNSwxLjA2LDMuMDUsMS4wNiwzLjA1LDEuMDZjMC4zMi0wLjU4LDAuODQtMS4wMSwxLjQzLTEuMjVjLTEuMTEtNS44MS0xLjExLTUuODEtMS4xMS01LjgxICAgIGMtMC41NywwLjE2LTEuMTEsMC4zNS0xLjY1LDAuNjJjMC4xLTAuNTcsMC4xOS0xLjE0LDAuMjEtMS43MWMxLjE0LTAuNDMsMi4zNy0wLjY4LDMuNjQtMC42OCAgICBDNzkuOTYsMjAuNjYsODQuNTUsMjUuMjUsODQuNTMsMzAuOTJ6IE03NC4yOCwyOC4wMmMwLjMsMCwwLjYzLDAuMDIsMC45MywwLjEzYzAuMzIsMC4xMSwwLjYsMC4yOCwwLjg3LDAuNDkgICAgYzQuNDUtMy44OCw0LjQ1LTMuODgsNC40NS0zLjg4Yy0wLjkyLTAuOTItMi4wNi0xLjY4LTMuMzktMi4xNWMtMS4zMS0wLjQ2LTIuNjYtMC41Ni0zLjk3LTAuNDFMNzQuMjgsMjguMDJ6IE03NS4zNywzOS42MSAgICBjLTEuMTEtNS44MS0xLjExLTUuODEtMS4xMS01LjgxYy0wLjMsMC0wLjYzLTAuMDUtMC45Ni0wLjE2Yy0wLjI5LTAuMTEtMC41OS0wLjI4LTAuODQtMC40N2MtNC40NSwzLjg2LTQuNDUsMy44Ni00LjQ1LDMuODYgICAgYzAuODksMC45NSwyLjA2LDEuNzEsMy4zNiwyLjE3QzcyLjcxLDM5LjYzLDc0LjA3LDM5Ljc3LDc1LjM3LDM5LjYxTDc1LjM3LDM5LjYxeiBNODIuMzUsMzQuMjljLTUuNTYtMS45My01LjU2LTEuOTMtNS41Ni0xLjkzICAgIGMtMC4zMywwLjU3LTAuODUsMS0xLjQ1LDEuMjJjMS4xMiw1LjgxLDEuMTIsNS44MSwxLjEyLDUuODFDNzkuMDQsMzguNzQsODEuMjcsMzYuODksODIuMzUsMzQuMjl6IE04Mi43MywzMy4yNiAgICBjMC43Ny0yLjcyLDAuMTQtNS41NC0xLjQ2LTcuNjZjLTQuNDgsMy44Ni00LjQ4LDMuODYtNC40OCwzLjg2YzAuMzIsMC41NCwwLjQzLDEuMTksMC4zNSwxLjg3TDgyLjczLDMzLjI2eiBNMTkuOCwyOC44OCAgICBjLTAuNzEsMC42My0xLjM2LDEuMzEtMS45MywyLjA0Yy0zLjAyLDEuMjgtMy4wMiwxLjI4LTMuMDIsMS4yOGMwLjM2LDEuMTYsMC4yMiwyLjUtMC40NiwzLjYxYzAuNzksMC41OSwwLjc5LDAuNTksMC43OSwwLjU5ICAgIGMwLjAzLTAuMDIsMC4wMy0wLjA1LDAuMDUtMC4xMWMtMC4xMywwLjQ0LTAuMjEsMC45LTAuMywxLjM0YzAtMC4wMywwLjAzLTAuMDYsMC4wMy0wLjA5Yy0xLjE5LTAuODktMS4xOS0wLjg5LTEuMTktMC44OSAgICBjLTAuOTMsMC45NS0yLjE1LDEuNDEtMy4zNywxLjQxYy0wLjU1LDQuMzItMC41NSw0LjMyLTAuNTUsNC4zMmMxLjcyLDAuMTQsMy40My0wLjI1LDQuOTUtMS4xMWMwLTAuMTQtMC4wMy0wLjI4LTAuMDMtMC40NCAgICBjMCwwLjA1LDAsMC4wOCwwLDAuMTFjMC4wNSwwLjYzLDAuMTQsMS4yNSwwLjI1LDEuODdjLTIuNSwxLjI1LTUuNDksMS40Ny04LjMyLDAuMzhjLTUuMzgtMi4wNi04LjA3LTguMDktNi0xMy40NyAgICBjMi4wNi01LjM3LDguMS04LjAzLDEzLjQ4LTUuOTdDMTYuNzMsMjQuNzMsMTguNjgsMjYuNiwxOS44LDI4Ljg4eiBNMiwzNi40M2M0LjAyLTEuNjgsNC4wMi0xLjY4LDQuMDItMS42OCAgICBjLTAuMzMtMS4xOS0wLjE5LTIuNSwwLjQ2LTMuNjFjLTMuNDctMi42My0zLjQ3LTIuNjMtMy40Ny0yLjYzQzEuMzgsMzAuODksMS4xLDMzLjg2LDIsMzYuNDN6IE05LjM0LDM3LjkzICAgIGMtMC42LTAuMTQtMS4xNy0wLjQxLTEuNjktMC43OWMtMC41Mi0wLjQxLTAuOTItMC45LTEuMjItMS40MWMtNC4wMiwxLjY4LTQuMDIsMS42OC00LjAyLDEuNjhjMC42LDEuMjIsMS40NiwyLjMxLDIuNjEsMy4xNyAgICBjMS4xNiwwLjg4LDIuNDQsMS40NCwzLjc4LDEuNjlMOS4zNCwzNy45M3ogTTExLjA1LDI0LjU0Yy0yLjc0LTAuMTYtNS41MiwwLjktNy40MiwzLjEyYzMuNDgsMi42NCwzLjQ4LDIuNjQsMy40OCwyLjY0ICAgIGMwLjkyLTAuOTUsMi4xNC0xLjQ0LDMuMzctMS40MkwxMS4wNSwyNC41NHogTTE4LjQ3LDI5LjU0Yy0wLjYtMS4yMi0xLjQ3LTIuMzEtMi42MS0zLjE4Yy0xLjE3LTAuOS0yLjQ1LTEuNDQtMy43OC0xLjY4ICAgIGMtMC41NCw0LjM0LTAuNTQsNC4zNC0wLjU0LDQuMzRjMC42LDAuMTQsMS4xNiwwLjQxLDEuNjgsMC43OWMwLjUyLDAuNDEsMC45MywwLjg3LDEuMjIsMS40MUwxOC40NywyOS41NHogTTE0Ljc3LDQwLjUzdjAuMDMgICAgYzAsMC4wMiwwLDAuMDIsMCwwLjA1QzE0Ljc3LDQwLjU4LDE0Ljc3LDQwLjU2LDE0Ljc3LDQwLjUzeiBNNTcuNDEsMzguNDRjLTAuNTUtMC45Mi0xLjIyLTEuNzEtMS45OS0yLjM5ICAgIGMwLjE0LDAuMTQsMC4zLDAuMjcsMC40NCwwLjQxYzAuMzUtMC4xMSwwLjcxLTAuMjIsMS4wNi0wLjM1YzIuNjEtMC45Niw0Ljg0LTIuNDcsNi42My00LjM3QzU3LDI2LjMxLDU3LDI2LjMxLDU3LDI2LjMxICAgIGMtMC44NywwLjc4LTEuODgsMS40MS0zLjAxLDEuODRjLTEuMTQsMC40MS0yLjM0LDAuNi0zLjQ4LDAuNTRjLTAuODcsNS0wLjg3LDUtMC44Nyw1Yy0wLjc5LTAuMDUtMS41OCwwLTIuMzcsMC4xNCAgICBjMC45NS01LjUxLDAuOTUtNS41MSwwLjk1LTUuNTFjLTIuMjUtMC43MS00LjE4LTIuMjYtNS4zMi00LjQzYy03LjMxLDIuNjktNy4zMSwyLjY5LTcuMzEsMi42OWwwLDBjLTEuMi0wLjUyLTIuNDUtMC45LTMuNzMtMS4xMiAgICBjLTAuMjQtMC44NC0wLjQzLTEuNzMtMC41OS0yLjYzYy0xLjcyLTEwLjgsNS42NS0yMC45NiwxNi40Ni0yMi42OWMxMC44Mi0xLjc1LDIxLjAxLDUuNjQsMjIuNzIsMTYuNDUgICAgQzcyLDI2LjIzLDY2LjMyLDM1LjM1LDU3LjQxLDM4LjQ0eiBNNDMuMjgsMTQuOUMzNi43LDkuNDUsMzYuNyw5LjQ1LDM2LjcsOS40NWMtMy4wNyw0LjI2LTQuMTgsOS44NS0yLjYxLDE1LjIgICAgYzguMDItMi45Myw4LjAyLTIuOTMsOC4wMi0yLjkzQzQxLjU0LDE5LjMzLDQyLjAzLDE2Ljg4LDQzLjI4LDE0Ljl6IE01Mi42OCwyLjMzYy0yLjU4LTAuMjctNS4yNywwLjAzLTcuODUsMC45OCAgICBjLTIuNjEsMC45NS00Ljg0LDIuNDctNi42Myw0LjM3YzYuNTUsNS40Myw2LjU1LDUuNDMsNi41NSw1LjQzYzAuODQtMC43OCwxLjg0LTEuNDEsMy4wMS0xLjg0YzEuMTQtMC40MSwyLjM0LTAuNiwzLjQ4LTAuNTUgICAgTDUyLjY4LDIuMzN6IE01OC44NSwxNS41M2M3Ljk5LTIuOTQsNy45OS0yLjk0LDcuOTktMi45NGMtMi4yNi01LjEtNi43NC04LjYzLTExLjg4LTkuODhjLTEuNDQsOC40Mi0xLjQ0LDguNDItMS40NCw4LjQyICAgIEM1NS43NSwxMS44MSw1Ny43MSwxMy4zNiw1OC44NSwxNS41M3ogTTY3LjYzLDE0Ljc3Yy03Ljk5LDIuOTYtNy45OSwyLjk2LTcuOTksMi45NmMwLjU0LDIuMzgsMC4wOCw0LjgzLTEuMTcsNi43OCAgICBjNi41NSw1LjQ2LDYuNTUsNS40Niw2LjU1LDUuNDZDNjguMTEsMjUuNzEsNjkuMjMsMjAuMTEsNjcuNjMsMTQuNzd6IE01NC43OCwzNS41NGMwLjE1LDAuMTEsMC4zMiwwLjI0LDAuNDgsMC4zOCAgICBDNTUuMSwzNS43OCw1NC45MywzNS42NSw1NC43OCwzNS41NHogTTM2LjQxLDI2Ljk4Yy0wLjItMC4wOC0wLjM2LTAuMTktMC41NS0wLjI3QzM2LjA1LDI2Ljc5LDM2LjIxLDI2LjksMzYuNDEsMjYuOTh6ICAgICBNMzcuNjgsMjcuNzRjLTAuMTQtMC4wOC0wLjMtMC4xOS0wLjQ2LTAuMjlDMzcuMzgsMjcuNTUsMzcuNTQsMjcuNjYsMzcuNjgsMjcuNzR6IE00Ni41NywzMy45OWMwLjI0LTAuMDUsMC40Ni0wLjExLDAuNy0wLjE2ICAgIGwwLDBDNDcuMDMsMzMuODgsNDYuODEsMzMuOTQsNDYuNTcsMzMuOTl6IE00OS42NCwzMy42OWMwLjQzLDAuMDMsMC44NywwLjA4LDEuMywwLjE3QzUwLjUxLDMzLjc3LDUwLjA3LDMzLjcyLDQ5LjY0LDMzLjY5eiAgICAgTTUxLjM1LDMzLjk0Yy0wLjE0LTAuMDMtMC4yNy0wLjA2LTAuNDEtMC4wOEM1MS4wOCwzMy44OCw1MS4yMSwzMy45MSw1MS4zNSwzMy45NHogTTUyLDM0LjEyYy0wLjE0LTAuMDItMC4yNy0wLjA4LTAuNDEtMC4xICAgIEM1MS43MywzNC4wNCw1MS44NiwzNC4xLDUyLDM0LjEyeiBNNTEuOTcsNTIuNjFjLTQuMTMsMS4zMS04LjQ3LTAuMjktMTAuODQtMy42M2MwLjM4LTAuNDcsMC43MS0wLjk4LDEuMDMtMS41ICAgIGMwLjU1LDAuOTIsMS4yNiwxLjcxLDIuMTIsMi4zNmMxLjQ0LTIuMDksMS40NC0yLjA5LDEuNDQtMi4wOWMtMS4xNC0wLjg2LTEuOS0yLjE3LTIuMTEtMy42MWMwLjMyLTEuMDgsMC41MS0yLjIsMC41OS0zLjM0ICAgIGMwLjQ5LTAuOTUsMS4yOC0xLjczLDIuMjMtMi4yNWMtMS4wOC0yLjMxLTEuMDgtMi4zMS0xLjA4LTIuMzFjLTAuNSwwLjI3LTAuOTksMC41Ny0xLjM5LDAuOTNjLTAuMTQtMC41OC0wLjI3LTEuMTctMC40Ni0xLjc0ICAgIGMwLjc4LTAuNTcsMS42OC0xLjAxLDIuNjYtMS4zMWM1LjExLTEuNiwxMC41NCwxLjIzLDEyLjE1LDYuMzZDNTkuOTQsNDUuNTgsNTcuMDgsNTEuMDEsNTEuOTcsNTIuNjF6IE00Ni45NSwzOC4zMSAgICBjMC43Ni0wLjMzLDEuNjMtMC40OSwyLjUyLTAuNDFjMC45LDAuMDUsMS43NCwwLjM1LDIuNDgsMC43OWMxLjQ0LTIuMSwxLjQ0LTIuMSwxLjQ0LTIuMWMtMS4wOS0wLjY3LTIuMzQtMS4xNC0zLjczLTEuMjIgICAgQzQ4LjMxLDM1LjI2LDQ3LDM1LjUxLDQ1LjgzLDM2TDQ2Ljk1LDM4LjMxeiBNNTIuMjcsNTAuNzRjLTEuMDktMi4zMS0xLjA5LTIuMzEtMS4wOS0yLjMxYy0wLjc4LDAuMzMtMS42NSwwLjQ5LTIuNTUsMC40MSAgICBjLTAuOS0wLjA1LTEuNzQtMC4zNS0yLjQ1LTAuNzljLTEuNDMsMi4wOS0xLjQzLDIuMDktMS40MywyLjA5YzEuMDUsMC43MSwyLjMzLDEuMTUsMy42OSwxLjI1ICAgIEM0OS44LDUxLjQ3LDUxLjExLDUxLjI2LDUyLjI3LDUwLjc0eiBNNTcuMDUsNDQuMjhjLTIuNTUtMC4yMi0yLjU1LTAuMjItMi41NS0wLjIyYy0wLjIyLDEuODItMS4zMywzLjMxLTIuODMsNC4xMyAgICBjMS4wOSwyLjMsMS4wOSwyLjMsMS4wOSwyLjNDNTUuMDcsNDkuMyw1Ni43Myw0Ny4wMiw1Ny4wNSw0NC4yOHogTTUzLjgyLDM2Ljg5Yy0xLjQ0LDIuMTItMS40NCwyLjEyLTEuNDQsMi4xMiAgICBjMS4zNiwxLjAzLDIuMjMsMi42OSwyLjE4LDQuNTFjMi41MiwwLjE5LDIuNTIsMC4xOSwyLjUyLDAuMTlDNTcuMTksNDAuOTcsNTUuOTEsMzguNDQsNTMuODIsMzYuODl6IE0zNi4wNSw1My4xNiAgICBjLTcuMjgsMy42LTE2LjEyLDAuNjctMTkuNzYtNi42Yy0zLjYxLTcuMjctMC42NS0xNi4xMyw2LjYxLTE5Ljc0YzcuMjgtMy42MywxNi4xNC0wLjY4LDE5Ljc1LDYuNiAgICBDNDYuMjksNDAuNjksNDMuMzMsNDkuNTIsMzYuMDUsNTMuMTZ6IE0yOC40NCwyNy4zMWMxLjMsOS4wNywxLjMsOS4wNywxLjMsOS4wN2MwLjQxLDAsMC44NSwwLjA4LDEuMjUsMC4yNCAgICBjMC4zOCwwLjE3LDAuNzQsMC4zOCwxLjA0LDAuNjVjNy4xMi01LjU2LDcuMTItNS41Niw3LjEyLTUuNTZjLTEuMzEtMS40OS0yLjk2LTIuNzQtNC45Mi0zLjUzICAgIEMzMi4zMywyNy40MiwzMC4zNywyNy4xNSwyOC40NCwyNy4zMXogTTE3Ljk1LDM0LjY0YzguNTYsMy40NSw4LjU2LDMuNDUsOC41NiwzLjQ1YzAuNDctMC43NCwxLjE0LTEuMjgsMS45My0xLjUyICAgIGMtMS4yNy05LjA3LTEuMjctOS4wNy0xLjI3LTkuMDdDMjMuMjIsMjguMjMsMTkuNzIsMzAuNzgsMTcuOTUsMzQuNjR6IE0xOS4xNSw0Ny40YzcuMjMtNS42OCw3LjIzLTUuNjgsNy4yMy01LjY4ICAgIGMtMC4zOS0wLjczLTAuNTItMS41Ny0wLjM2LTIuNDFjLTguNTYtMy40NS04LjU2LTMuNDUtOC41Ni0zLjQ1QzE2LjA4LDM5Ljg4LDE2Ljg0LDQ0LjE0LDE5LjE1LDQ3LjR6IE0zMC43NSw1Mi42NCAgICBjLTEuMjgtOC45My0xLjI4LTguOTMtMS4yOC04LjkzYy0wLjQtMC4wMy0wLjgxLTAuMTEtMS4yMi0wLjI3Yy0wLjQxLTAuMTctMC43Ni0wLjM4LTEuMDgtMC42OGMtNy4yMSw1LjY0LTcuMjEsNS42NC03LjIxLDUuNjQgICAgYzEuMjgsMS40NCwyLjg4LDIuNjEsNC43OSwzLjM3QzI2LjcsNTIuNTYsMjguNzcsNTIuODMsMzAuNzUsNTIuNjR6IE00MS4wMiw0NS4zMUMzMi43NCw0MiwzMi43NCw0MiwzMi43NCw0MiAgICBjLTAuNDksMC43My0xLjE3LDEuMjUtMS45NiwxLjUyYzEuMjUsOC45LDEuMjUsOC45LDEuMjUsOC45QzM1Ljg5LDUxLjYzLDM5LjI4LDQ5LjA5LDQxLjAyLDQ1LjMxeiBNMzkuOTQsMzIuNzcgICAgYy03LjA3LDUuNTQtNy4wNyw1LjU0LTcuMDcsNS41NGMwLjM4LDAuNzMsMC41MiwxLjYsMC4zMywyLjQ3YzguMzEsMy4zMSw4LjMxLDMuMzEsOC4zMSwzLjMxICAgIEM0Mi44Nyw0MC4xNSw0Mi4xNiwzNS45NywzOS45NCwzMi43N3oiLz4mI3hhOwk8L2c+JiN4YTs8L2c+JiN4YTs8L3N2Zz4=;fontStyle=1;strokeWidth=14;fontSize=14;" vertex="1" parent="1">
          <mxGeometry x="630" y="217.5000000000009" width="85" height="55" as="geometry"/>
        </mxCell>
      </root>
    </mxGraphModel>
  </diagram>
</mxfile>
